<svg width="32" height="68" viewBox="0 0 32 68" fill="none" xmlns="http://www.w3.org/2000/svg">
<path d="M16 18C19.6819 18 22.6667 20.9848 22.6667 24.6667L9.33333 24.6667C9.33333 20.9848 12.3181 18 16 18Z" fill="#1A1A1A"/>
<path d="M8 34C8 29.5817 11.5817 26 16 26C20.4183 26 24 29.5817 24 34C24 38.4183 20.4183 42 16 42C11.5817 42 8 38.4183 8 34Z" fill="#1A1A1A"/>
<path d="M6.66667 27.3333C2.98477 27.3333 0 30.3181 0 34C0 37.6819 2.98477 40.6667 6.66667 40.6667V27.3333Z" fill="#1A1A1A"/>
<path d="M32 34C32 37.6819 29.0152 40.6667 25.3333 40.6667V27.3333C29.0152 27.3333 32 30.3181 32 34Z" fill="#1A1A1A"/>
<path d="M9.33333 43.3333C9.33333 47.0152 12.3181 50 16 50C19.6819 50 22.6667 47.0152 22.6667 43.3333H9.33333Z" fill="#1A1A1A"/>
<path d="M25.3333 20.6667C27.5425 20.6667 29.3333 22.4575 29.3333 24.6667H25.3333V20.6667Z" fill="#1A1A1A"/>
<path d="M25.3333 47.3333C27.5425 47.3333 29.3333 45.5425 29.3333 43.3333H25.3333V47.3333Z" fill="#1A1A1A"/>
<path d="M2.66667 24.6667C2.66667 22.4575 4.45753 20.6667 6.66667 20.6667V24.6667H2.66667Z" fill="#1A1A1A"/>
<path d="M2.66667 43.3333C2.66667 45.5425 4.45753 47.3333 6.66667 47.3333V43.3333H2.66667Z" fill="#1A1A1A"/>
</svg>
